<svg width="28" height="28" viewBox="0 0 28 28" fill="none" xmlns="http://www.w3.org/2000/svg">
<path d="M18.6667 5.83333C19.311 5.83333 19.8333 5.311 19.8333 4.66667C19.8333 4.02233 19.311 3.5 18.6667 3.5C18.0223 3.5 17.5 4.02233 17.5 4.66667C17.5 5.311 18.0223 5.83333 18.6667 5.83333Z" stroke="#AD9551" stroke-width="1.75" stroke-linecap="round" stroke-linejoin="round"/>
<path d="M20.9993 22.1667L22.166 14L15.166 15.1667" stroke="#AD9551" stroke-width="1.75" stroke-linecap="round" stroke-linejoin="round"/>
<path d="M5.83398 9.33325L9.33398 5.83325L15.7507 9.33325L12.9973 13.4166" stroke="#AD9551" stroke-width="1.75" stroke-linecap="round" stroke-linejoin="round"/>
<path d="M4.94622 16.9167C4.61703 17.9937 4.60658 19.1428 4.91613 20.2255C5.22569 21.3082 5.84201 22.2782 6.69071 23.0184C7.5394 23.7585 8.58418 24.2372 9.69894 24.3966C10.8137 24.556 11.9508 24.3893 12.9729 23.9167" stroke="#AD9551" stroke-width="1.75" stroke-linecap="round" stroke-linejoin="round"/>
<path d="M16.054 20.4168C16.3832 19.3399 16.3936 18.1907 16.0841 17.108C15.7745 16.0253 15.1582 15.0553 14.3095 14.3152C13.4608 13.575 12.416 13.0963 11.3013 12.9369C10.1865 12.7775 9.04947 12.9442 8.02734 13.4168" stroke="#AD9551" stroke-width="1.75" stroke-linecap="round" stroke-linejoin="round"/>
</svg>
