<svg width="28" height="28" viewBox="0 0 28 28" fill="none" xmlns="http://www.w3.org/2000/svg">
<path d="M25.6673 14.0002H22.774C22.2641 13.9991 21.7679 14.165 21.3613 14.4726C20.9547 14.7802 20.66 15.2126 20.5223 15.7035L17.7807 25.4568C17.763 25.5174 17.7261 25.5706 17.6757 25.6085C17.6252 25.6464 17.5638 25.6668 17.5007 25.6668C17.4375 25.6668 17.3761 25.6464 17.3257 25.6085C17.2752 25.5706 17.2383 25.5174 17.2207 25.4568L10.7807 2.5435C10.763 2.48291 10.7261 2.42969 10.6757 2.39183C10.6252 2.35396 10.5638 2.3335 10.5007 2.3335C10.4375 2.3335 10.3761 2.35396 10.3257 2.39183C10.2752 2.42969 10.2383 2.48291 10.2207 2.5435L7.47898 12.2968C7.34186 12.7858 7.04893 13.2168 6.64466 13.5242C6.24039 13.8316 5.74686 13.9987 5.23898 14.0002H2.33398" stroke="#AD9551" stroke-width="1.75" stroke-linecap="round" stroke-linejoin="round"/>
</svg>
