<svg width="40" height="40" viewBox="0 0 40 40" fill="none" xmlns="http://www.w3.org/2000/svg">
<path d="M24.9993 3.3335H9.99935C9.11529 3.3335 8.26745 3.68469 7.64233 4.30981C7.0172 4.93493 6.66602 5.78277 6.66602 6.66683V33.3335C6.66602 34.2176 7.0172 35.0654 7.64233 35.6905C8.26745 36.3156 9.11529 36.6668 9.99935 36.6668H29.9993C30.8834 36.6668 31.7312 36.3156 32.3564 35.6905C32.9815 35.0654 33.3327 34.2176 33.3327 33.3335V11.6668L24.9993 3.3335Z" stroke="#6B7280" stroke-width="4" stroke-linecap="round" stroke-linejoin="round"/>
<path d="M23.334 3.3335V10.0002C23.334 10.8842 23.6852 11.7321 24.3103 12.3572C24.9354 12.9823 25.7833 13.3335 26.6673 13.3335H33.334" stroke="#6B7280" stroke-width="4" stroke-linecap="round" stroke-linejoin="round"/>
<path d="M16.6673 15H13.334" stroke="#6B7280" stroke-width="4" stroke-linecap="round" stroke-linejoin="round"/>
<path d="M26.6673 21.6665H13.334" stroke="#6B7280" stroke-width="4" stroke-linecap="round" stroke-linejoin="round"/>
<path d="M26.6673 28.3335H13.334" stroke="#6B7280" stroke-width="4" stroke-linecap="round" stroke-linejoin="round"/>
</svg>
