<svg width="18" height="18" viewBox="0 0 18 18" fill="none" xmlns="http://www.w3.org/2000/svg">
<g clip-path="url(#clip0_87_538)">
<path d="M9 16.5V6" stroke="#AD9551" stroke-width="1.75" stroke-linecap="round" stroke-linejoin="round"/>
<path d="M3.75 9H1.5C1.5 10.9891 2.29018 12.8968 3.6967 14.3033C5.10322 15.7098 7.01088 16.5 9 16.5C10.9891 16.5 12.8968 15.7098 14.3033 14.3033C15.7098 12.8968 16.5 10.9891 16.5 9H14.25" stroke="#AD9551" stroke-width="1.75" stroke-linecap="round" stroke-linejoin="round"/>
<path d="M9 6C10.2426 6 11.25 4.99264 11.25 3.75C11.25 2.50736 10.2426 1.5 9 1.5C7.75736 1.5 6.75 2.50736 6.75 3.75C6.75 4.99264 7.75736 6 9 6Z" stroke="#AD9551" stroke-width="1.75" stroke-linecap="round" stroke-linejoin="round"/>
</g>
<defs>
<clipPath id="clip0_87_538">
<rect width="18" height="18" fill="white"/>
</clipPath>
</defs>
</svg>
