<svg width="28" height="28" viewBox="0 0 28 28" fill="none" xmlns="http://www.w3.org/2000/svg">
<path d="M2.33398 6.99992C3.03398 7.58325 3.73398 8.16659 5.25065 8.16659C8.16732 8.16659 8.16732 5.83325 11.084 5.83325C14.1173 5.83325 13.884 8.16659 16.9173 8.16659C19.834 8.16659 19.834 5.83325 22.7507 5.83325C24.2673 5.83325 24.9673 6.41659 25.6673 6.99992" stroke="#AD9551" stroke-width="1.75" stroke-linecap="round" stroke-linejoin="round"/>
<path d="M2.33398 13.9999C3.03398 14.5833 3.73398 15.1666 5.25065 15.1666C8.16732 15.1666 8.16732 12.8333 11.084 12.8333C14.1173 12.8333 13.884 15.1666 16.9173 15.1666C19.834 15.1666 19.834 12.8333 22.7507 12.8333C24.2673 12.8333 24.9673 13.4166 25.6673 13.9999" stroke="#AD9551" stroke-width="1.75" stroke-linecap="round" stroke-linejoin="round"/>
<path d="M2.33398 20.9999C3.03398 21.5833 3.73398 22.1666 5.25065 22.1666C8.16732 22.1666 8.16732 19.8333 11.084 19.8333C14.1173 19.8333 13.884 22.1666 16.9173 22.1666C19.834 22.1666 19.834 19.8333 22.7507 19.8333C24.2673 19.8333 24.9673 20.4166 25.6673 20.9999" stroke="#AD9551" stroke-width="1.75" stroke-linecap="round" stroke-linejoin="round"/>
</svg>
